<?xml version="1.0" encoding="UTF-8"?>
<svg xmlns="http://www.w3.org/2000/svg" xmlns:xlink="http://www.w3.org/1999/xlink" width="50px" height="50px" viewBox="0 0 50 50" version="1.1">
<g id="surface1">
<path style=" stroke:none;fill-rule:nonzero;fill:rgb(0%,0%,0%);fill-opacity:1;" d="M 25 0 C 11.191406 0 0 11.191406 0 25 C 0 38.808594 11.191406 50 25 50 C 38.808594 50 50 38.808594 50 25 C 50 11.191406 38.808594 0 25 0 Z M 40.234375 34.523438 C 40.234375 36.492188 38.636719 38.09375 36.664062 38.09375 L 13.335938 38.09375 C 11.363281 38.09375 9.765625 36.492188 9.765625 34.523438 L 9.765625 15.476562 C 9.765625 13.507812 11.363281 11.90625 13.335938 11.90625 L 36.664062 11.90625 C 38.636719 11.90625 40.234375 13.507812 40.234375 15.476562 Z M 40.234375 34.523438 "/>
<path style=" stroke:none;fill-rule:nonzero;fill:rgb(0%,0%,0%);fill-opacity:1;" d="M 32.664062 16.28125 L 25 20.703125 L 17.335938 16.28125 C 16.484375 15.785156 15.390625 16.078125 14.898438 16.933594 C 14.40625 17.785156 14.699219 18.878906 15.550781 19.371094 L 24.105469 24.3125 L 24.109375 24.3125 C 24.378906 24.46875 24.6875 24.550781 25 24.550781 C 25.3125 24.550781 25.621094 24.46875 25.890625 24.3125 L 34.449219 19.371094 C 35.300781 18.878906 35.59375 17.785156 35.101562 16.933594 C 34.609375 16.078125 33.515625 15.785156 32.664062 16.28125 Z M 32.664062 16.28125 "/>
</g>
</svg>
